PathFileType	4	(X/Y/Z)	/tmp/tmpiso3uksv//results/MarkerData/Run_5.trc
DataRate	CameraRate	NumFrames	NumMarkers	Units	OrigDataRate	OrigDataStartFrame	OrigNumFrames
119.99	119.99	8	42	m	119.99	566	647
Frame#	Time	C7			CLAV			LACR			LASI			LCAL			LFAradius			LFAsuperior			LFAulna			LLEL			LMEL			LMT5			LPSI			LTB1			LTB2			LTB3			LTH1			LTH2			LTH3			LTOE			LUA1			LUA2			LUA3			RACR			RASI			RCAL			RFAradius			RFAsuperior			RFAulna			RLEL			RMEL			RMT5			RPSI			RTB1			RTB2			RTB3			RTH1			RTH2			RTH3			RTOE			RUA1			RUA2			RUA3		
		X1	Y1	Z1	X2	Y2	Z2	X3	Y3	Z3	X4	Y4	Z4	X5	Y5	Z5	X6	Y6	Z6	X7	Y7	Z7	X8	Y8	Z8	X9	Y9	Z9	X10	Y10	Z10	X11	Y11	Z11	X12	Y12	Z12	X13	Y13	Z13	X14	Y14	Z14	X15	Y15	Z15	X16	Y16	Z16	X17	Y17	Z17	X18	Y18	Z18	X19	Y19	Z19	X20	Y20	Z20	X21	Y21	Z21	X22	Y22	Z22	X23	Y23	Z23	X24	Y24	Z24	X25	Y25	Z25	X26	Y26	Z26	X27	Y27	Z27	X28	Y28	Z28	X29	Y29	Z29	X30	Y30	Z30	X31	Y31	Z31	X32	Y32	Z32	X33	Y33	Z33	X34	Y34	Z34	X35	Y35	Z35	X36	Y36	Z36	X37	Y37	Z37	X38	Y38	Z38	X39	Y39	Z39	X40	Y40	Z40	X41	Y41	Z41	X42	Y42	Z42

567	4.725	0.776965	1.49041	-0.387293	0.903868	1.40469	-0.334642	0.833871	1.43546	-0.56181	0.817945	0.974285	-0.519752	0.264932	0.200932	-0.446744	1.02623	1.22741	-0.605144	0.892681	1.21274	-0.719967	1.04325	1.17553	-0.644868	0.824928	1.19342	-0.742581	0.796753	1.12854	-0.687894	0.398693	0.0650084	-0.511438	0.657643	1.01434	-0.415841	0.56752	0.372742	-0.461339	0.466963	0.316963	-0.511328	0.433533	0.237242	-0.439624	0.736997	0.838755	-0.552495	0.751333	0.717943	-0.5417	0.631848	0.611248	-0.528499	0.436564	0.0699866	-0.425933	0.817988	1.36806	-0.625493	0.763273	1.29262	-0.630058	0.823138	1.28644	-0.677675	0.784853	1.45636	-0.198798	0.831491	0.996263	-0.268682	0.655074	0.443696	-0.3071	0.780064	1.0864	-0.0699927	0.653336	1.19835	-0.0489737	0.720898	1.04982	-0.0673534	0.59136	1.25328	-0.0639887	0.559782	1.23433	-0.143949	0.739598	0.283037	-0.205361	0.662909	1.01612	-0.326751	0.998258	0.502042	-0.299566	0.920734	0.503396	-0.244902	0.830727	0.425781	-0.303616	0.873403	0.849125	-0.221405	0.996051	0.800162	-0.252744	1.01248	0.668443	-0.238441	0.772479	0.257275	-0.294386	0.717971	1.38166	-0.133474	0.709877	1.31231	-0.120495	0.606568	1.33177	-0.120779
568	4.73333	0.776589	1.49493	-0.38502	0.901736	1.41093	-0.330461	0.837157	1.44119	-0.558093	0.822282	0.978219	-0.519292	0.247075	0.224039	-0.446237	1.02829	1.23077	-0.595333	0.89837	1.21798	-0.714171	1.04536	1.17872	-0.634616	0.831672	1.1996	-0.739672	0.799082	1.13486	-0.686091	0.361365	0.0694127	-0.512095	0.660919	1.02011	-0.417541	0.54786	0.386051	-0.461484	0.445982	0.332275	-0.511914	0.413026	0.250389	-0.441716	0.735294	0.84375	-0.552701	0.744085	0.722533	-0.541593	0.619787	0.622957	-0.526842	0.401328	0.0728709	-0.427111	0.822826	1.37423	-0.622663	0.767411	1.29995	-0.630253	0.829716	1.29231	-0.674825	0.781142	1.46123	-0.197157	0.832521	1.00337	-0.271631	0.686771	0.401798	-0.309544	0.773767	1.09681	-0.0640434	0.645891	1.20891	-0.0470248	0.714873	1.05988	-0.0604257	0.584581	1.26318	-0.0644199	0.554248	1.24342	-0.1446	0.792609	0.255799	-0.205437	0.66553	1.02219	-0.328368	1.01925	0.506471	-0.2993	0.942136	0.496972	-0.244801	0.863977	0.407939	-0.303643	0.877189	0.86094	-0.222118	0.998921	0.811878	-0.251585	1.01696	0.678904	-0.239336	0.829329	0.234133	-0.293789	0.713502	1.3889	-0.132412	0.704708	1.3198	-0.118917	0.601545	1.3405	-0.121364
569	4.74167	0.776445	1.49898	-0.382935	0.90016	1.41611	-0.326504	0.839994	1.44649	-0.554437	0.826276	0.982166	-0.518373	0.233867	0.249323	-0.444307	1.02922	1.2332	-0.586035	0.902947	1.22295	-0.708989	1.04626	1.18109	-0.625249	0.837312	1.20562	-0.737199	0.800714	1.14112	-0.685114	0.323504	0.0771052	-0.510923	0.664072	1.02595	-0.419088	0.53214	0.398059	-0.462172	0.428498	0.346735	-0.512276	0.395093	0.263565	-0.443097	0.733703	0.849354	-0.553021	0.737845	0.727467	-0.541962	0.610728	0.633531	-0.525978	0.36677	0.079037	-0.427448	0.827127	1.38017	-0.619911	0.770972	1.30726	-0.630494	0.835244	1.298	-0.672105	0.778007	1.46541	-0.195686	0.833276	1.01026	-0.273734	0.722413	0.360399	-0.312145	0.76863	1.10609	-0.0580608	0.63968	1.21829	-0.0449014	0.71007	1.06887	-0.0533661	0.578913	1.27182	-0.0645353	0.550042	1.25114	-0.144848	0.846714	0.232026	-0.205388	0.667744	1.02781	-0.330254	1.0383	0.509955	-0.298446	0.962969	0.490134	-0.244242	0.898214	0.391163	-0.303701	0.878473	0.870828	-0.2224	0.999637	0.821128	-0.249445	1.01841	0.686742	-0.240444	0.887453	0.21546	-0.293073	0.709825	1.39523	-0.13129	0.700438	1.32633	-0.117224	0.597477	1.34807	-0.121612
570	4.75	0.77658	1.50254	-0.381079	0.899307	1.42034	-0.322699	0.842685	1.45126	-0.551025	0.82964	0.98587	-0.516813	0.223827	0.276237	-0.441734	1.02904	1.23456	-0.577355	0.906498	1.22744	-0.704564	1.04597	1.18237	-0.616631	0.841827	1.21124	-0.735051	0.80154	1.1472	-0.6847	0.285528	0.0893058	-0.507113	0.667041	1.03169	-0.420752	0.519676	0.407886	-0.463063	0.413877	0.359976	-0.51229	0.378504	0.277092	-0.443351	0.73281	0.854974	-0.553367	0.733195	0.732256	-0.542645	0.604748	0.642032	-0.526016	0.332605	0.0896178	-0.425804	0.83105	1.38576	-0.617295	0.774009	1.31446	-0.630744	0.839769	1.3033	-0.669532	0.775466	1.46875	-0.194444	0.833817	1.01645	-0.274859	0.760997	0.320211	-0.314509	0.764805	1.11425	-0.0517262	0.634849	1.22638	-0.0424898	0.706531	1.07672	-0.0463819	0.574379	1.27904	-0.0641942	0.546966	1.25739	-0.144531	0.901072	0.212042	-0.205236	0.669619	1.03309	-0.332202	1.05513	0.512108	-0.296982	0.982752	0.482778	-0.24316	0.932043	0.375739	-0.303715	0.877429	0.877632	-0.221986	0.998563	0.827646	-0.246458	1.01747	0.691721	-0.241619	0.945302	0.201703	-0.292532	0.706972	1.40051	-0.13006	0.697124	1.3318	-0.115321	0.59435	1.35435	-0.121405
571	4.75833	0.777033	1.50561	-0.379364	0.899126	1.4238	-0.319015	0.845445	1.45542	-0.547938	0.83222	0.989427	-0.514627	0.214913	0.304228	-0.439652	1.02778	1.2347	-0.56941	0.909042	1.23124	-0.700985	1.04446	1.18236	-0.608687	0.845125	1.21631	-0.733128	0.801266	1.15302	-0.684528	0.249109	0.106622	-0.500485	0.669597	1.03719	-0.422687	0.509715	0.415517	-0.46363	0.401531	0.37222	-0.511791	0.362423	0.29169	-0.442295	0.732942	0.859905	-0.553636	0.730842	0.736406	-0.543318	0.601871	0.647877	-0.526808	0.299201	0.105423	-0.421173	0.834657	1.39086	-0.614819	0.776625	1.3214	-0.630886	0.843384	1.3081	-0.667174	0.773497	1.47119	-0.193319	0.834119	1.0215	-0.275127	0.801431	0.282025	-0.316193	0.762387	1.12127	-0.0448771	0.631425	1.23308	-0.0397051	0.704302	1.08334	-0.0396023	0.570996	1.28474	-0.0632988	0.544883	1.26209	-0.143538	0.954646	0.195761	-0.20519	0.671126	1.03826	-0.334089	1.0694	0.512502	-0.294852	1.00084	0.474466	-0.241516	0.964407	0.361491	-0.303415	0.874737	0.880848	-0.220884	0.996374	0.831417	-0.243261	1.01497	0.693785	-0.242461	1.00105	0.192606	-0.292461	0.704935	1.40462	-0.128671	0.694788	1.33609	-0.113199	0.592127	1.35924	-0.120637
572	4.76667	0.77784	1.50829	-0.377638	0.899393	1.42657	-0.315517	0.8483	1.45893	-0.545136	0.834019	0.993031	-0.512142	0.205391	0.332955	-0.439023	1.02545	1.23347	-0.562335	0.910531	1.23417	-0.698194	1.04164	1.18088	-0.601486	0.847092	1.22073	-0.731369	0.799628	1.15848	-0.68434	0.216466	0.128746	-0.491534	0.671537	1.04233	-0.424835	0.501736	0.421672	-0.463417	0.39117	0.384111	-0.510704	0.346742	0.30817	-0.440049	0.734111	0.863621	-0.553717	0.731276	0.739525	-0.543531	0.602039	0.650945	-0.527984	0.267689	0.126821	-0.413221	0.837906	1.39539	-0.612446	0.778883	1.32788	-0.630747	0.846169	1.31236	-0.6651	0.772093	1.4728	-0.192116	0.834055	1.02518	-0.274735	0.84255	0.246791	-0.31687	0.761376	1.12712	-0.0375769	0.629317	1.23824	-0.0364915	0.703416	1.08872	-0.0330265	0.568779	1.28887	-0.0617831	0.543763	1.26519	-0.141809	1.00621	0.182656	-0.205479	0.672178	1.04338	-0.335922	1.08082	0.510746	-0.29209	1.01665	0.464724	-0.239419	0.994656	0.348032	-0.302506	0.871204	0.880883	-0.219317	0.993807	0.832549	-0.240668	1.01155	0.693011	-0.242599	1.05299	0.187187	-0.292999	0.703676	1.40753	-0.127086	0.693429	1.33912	-0.110892	0.590768	1.36267	-0.119268
573	4.775	0.778999	1.51062	-0.375761	0.899826	1.42864	-0.312344	0.851123	1.46175	-0.542498	0.835191	0.996737	-0.50984	0.194754	0.362369	-0.440211	1.0221	1.2308	-0.55625	0.910873	1.23602	-0.695962	1.03742	1.17783	-0.595209	0.847633	1.22443	-0.729734	0.796553	1.1635	-0.683997	0.18922	0.154677	-0.481158	0.672858	1.04698	-0.426976	0.495559	0.427325	-0.462237	0.382864	0.396385	-0.509121	0.332082	0.327031	-0.437034	0.736169	0.86594	-0.55354	0.73448	0.741413	-0.542895	0.605118	0.651507	-0.529144	0.23953	0.15359	-0.402583	0.840699	1.39925	-0.610127	0.780728	1.33371	-0.630162	0.848124	1.31611	-0.663296	0.771295	1.4737	-0.19067	0.833486	1.0276	-0.273785	0.88302	0.215564	-0.316459	0.761722	1.13173	-0.0300283	0.628405	1.24176	-0.0327933	0.703894	1.09286	-0.0265329	0.567751	1.29145	-0.0595891	0.543652	1.26671	-0.139314	1.05445	0.172025	-0.206219	0.672743	1.0482	-0.337747	1.08928	0.506692	-0.289012	1.02988	0.453479	-0.237179	1.02234	0.335172	-0.300937	0.867468	0.878825	-0.217563	0.991349	0.831134	-0.239196	1.00731	0.689532	-0.241981	1.09985	0.18412	-0.294075	0.703164	1.4093	-0.125287	0.693032	1.34091	-0.108413	0.590246	1.36464	-0.117334
574	4.78333	0.780421	1.51262	-0.373656	0.900201	1.42992	-0.309622	0.853734	1.46388	-0.539891	0.835997	1.00039	-0.508078	0.184123	0.392591	-0.442884	1.01784	1.22659	-0.551216	0.909967	1.23667	-0.693989	1.0318	1.17317	-0.590024	0.846691	1.22736	-0.728166	0.792157	1.16804	-0.683457	0.167608	0.183345	-0.470352	0.673771	1.051	-0.428857	0.491283	0.433174	-0.460215	0.376921	0.409515	-0.507259	0.319499	0.348141	-0.433849	0.738963	0.866991	-0.553126	0.739857	0.742102	-0.541343	0.610839	0.650062	-0.530036	0.215868	0.184833	-0.390725	0.842901	1.40238	-0.607822	0.781966	1.33878	-0.629047	0.849149	1.31935	-0.661644	0.771149	1.474	-0.188905	0.83238	1.02907	-0.272253	0.921242	0.189264	-0.315103	0.763393	1.13507	-0.0224413	0.628654	1.2437	-0.0285447	0.705742	1.09578	-0.0199442	0.567943	1.29257	-0.0566579	0.544613	1.26671	-0.136043	1.09813	0.163331	-0.207417	0.672913	1.05221	-0.339538	1.09485	0.500616	-0.28625	1.0407	0.441324	-0.235192	1.04694	0.323157	-0.29906	0.863945	0.875864	-0.215811	0.989029	0.82718	-0.238783	1.00192	0.683523	-0.240934	1.14075	0.182245	-0.295516	0.703386	1.41004	-0.123252	0.693581	1.34156	-0.105712	0.590557	1.3652	-0.11491
